<?xml version="1.0" standalone="no"?>
<!DOCTYPE svg PUBLIC "-//W3C//DTD SVG 20010904//EN"
 "http://www.w3.org/TR/2001/REC-SVG-20010904/DTD/svg10.dtd">
<svg version="1.0" xmlns="http://www.w3.org/2000/svg"
 width="1024.000000pt" height="1024.000000pt" viewBox="0 0 1024.000000 1024.000000"
 preserveAspectRatio="xMidYMid meet">
<metadata>
Created by potrace 1.14, written by Peter Selinger 2001-2017
</metadata>
<g transform="translate(0.000000,1024.000000) scale(0.100000,-0.100000)"
fill="#000000" stroke="none">
<path d="M3658 9525 c-2 -1 -30 -5 -63 -9 -33 -3 -73 -8 -90 -11 -57 -11 -210
-68 -250 -93 -22 -14 -42 -24 -45 -23 -8 3 -108 -70 -184 -135 -116 -99 -210
-223 -280 -366 -21 -42 -39 -82 -40 -90 -1 -7 -8 -31 -15 -54 -13 -41 -14 -41
-65 -42 -55 -2 -149 -12 -181 -19 -11 -2 -33 -6 -50 -9 -16 -3 -61 -17 -100
-31 -38 -14 -74 -26 -80 -27 -43 -9 -210 -115 -271 -171 -17 -16 -49 -46 -70
-66 -249 -229 -379 -610 -318 -929 8 -41 14 -78 14 -82 0 -4 -42 -27 -92 -52
-193 -93 -363 -229 -481 -386 -41 -55 -121 -182 -144 -230 -30 -62 -57 -129
-73 -180 -33 -99 -38 -125 -59 -275 -10 -71 -5 -286 8 -375 14 -93 32 -157 81
-284 43 -111 45 -102 -38 -155 -108 -69 -259 -200 -323 -283 -19 -24 -44 -54
-57 -68 -37 -41 -150 -279 -171 -363 -11 -43 -22 -81 -25 -85 -2 -4 -7 -29
-10 -57 -3 -27 -8 -61 -11 -75 -9 -39 -13 -316 -5 -368 5 -26 11 -69 14 -97 9
-65 50 -199 92 -298 34 -79 112 -219 126 -225 5 -2 8 -8 8 -14 0 -5 6 -15 12
-22 7 -7 24 -28 38 -47 29 -38 158 -170 210 -213 59 -49 191 -131 266 -165
l71 -33 -8 -41 c-11 -59 -9 -331 3 -397 39 -209 99 -357 210 -516 64 -91 203
-235 273 -283 22 -15 58 -40 80 -55 93 -64 295 -145 405 -162 19 -3 53 -9 75
-14 22 -5 120 -8 217 -6 l176 3 22 -61 c49 -135 147 -289 252 -395 64 -65 208
-181 224 -181 3 0 25 -13 49 -30 24 -16 46 -30 49 -30 3 0 33 -13 66 -29 70
-34 171 -68 243 -82 29 -5 66 -12 82 -15 17 -4 95 -7 175 -8 145 -2 230 8 340
40 30 9 60 18 65 19 126 36 313 147 435 259 208 190 338 427 387 705 16 89 17
341 17 3411 0 1823 -3 3347 -7 3385 -11 126 -67 317 -108 377 -11 14 -19 30
-19 35 0 12 -97 152 -119 173 -9 8 -28 29 -41 45 -35 42 -173 165 -186 165 -3
0 -20 11 -37 24 -44 32 -181 100 -242 120 -96 30 -201 47 -312 50 -62 2 -114
2 -115 1z"/>
<path d="M6375 9522 c-47 -4 -174 -33 -236 -53 -139 -44 -295 -144 -424 -273
-161 -162 -260 -341 -291 -526 -3 -19 -8 -38 -10 -41 -2 -4 -7 -42 -11 -85 -9
-102 -9 -6638 0 -6724 22 -213 86 -391 201 -560 65 -96 106 -141 255 -280 9
-8 48 -36 86 -61 217 -144 433 -207 697 -203 78 1 153 5 165 7 11 3 43 9 70
13 26 4 73 15 103 26 30 10 56 19 57 19 73 18 259 114 335 173 14 12 39 31 55
43 41 31 133 122 170 169 71 88 158 244 193 345 l13 36 186 -1 c102 0 200 2
216 6 17 3 48 9 70 13 122 21 375 127 428 179 7 7 31 25 55 39 49 32 242 225
242 243 0 7 4 14 8 16 5 2 27 32 50 67 104 156 163 326 187 539 11 88 4 307
-10 349 -5 16 20 34 95 68 65 30 175 99 240 151 103 84 250 252 300 344 14 25
28 47 32 50 6 5 59 117 91 195 20 49 51 167 68 260 14 73 17 364 5 425 -3 19
-9 55 -12 80 -18 136 -103 352 -192 485 -67 101 -249 278 -362 354 -52 35 -99
67 -103 71 -4 4 6 38 22 77 29 66 75 214 86 272 25 135 26 390 0 511 -3 14 -7
39 -9 55 -12 82 -95 290 -151 380 -14 22 -28 47 -32 55 -3 8 -30 47 -59 85
-130 173 -293 306 -490 401 -85 41 -95 48 -90 67 25 90 31 309 12 397 -3 14
-9 41 -12 60 -5 32 -44 148 -75 228 -8 17 -17 32 -21 32 -4 0 -8 5 -8 10 0 6
-20 41 -44 78 -170 256 -437 440 -715 492 -65 12 -149 21 -210 24 -34 1 -35 2
-71 96 -43 111 -59 142 -113 223 -54 81 -61 89 -152 182 -161 163 -352 266
-565 305 -61 12 -258 19 -325 12z"/>
</g>
</svg>
